<?xml version="1.0" encoding="utf-8"?>
<svg xmlns="http://www.w3.org/2000/svg" viewBox="0 0 500 500">
  <defs>
    <clipPath clipPathUnits="userSpaceOnUse" id="clipPath2">
      <path d="M 0,841.89 H 595.276 V 0 H 0 Z" transform="translate(-341.19781,-423.97231)" id="path2"/>
    </clipPath>
    <clipPath clipPathUnits="userSpaceOnUse" id="clipPath4">
      <path d="M 0,841.89 H 595.276 V 0 H 0 Z" transform="translate(-284.92851,-605.44811)" id="path4"/>
    </clipPath>
    <clipPath clipPathUnits="userSpaceOnUse" id="clipPath6">
      <path d="M 0,841.89 H 595.276 V 0 H 0 Z" transform="translate(-284.92851,-605.44811)" id="path6"/>
    </clipPath>
    <clipPath clipPathUnits="userSpaceOnUse" id="clipPath8">
      <path d="M 0,841.89 H 595.276 V 0 H 0 Z" transform="translate(-226.9399,-502.87852)" id="path8"/>
    </clipPath>
    <clipPath clipPathUnits="userSpaceOnUse" id="clipPath10">
      <path d="M 0,841.89 H 595.276 V 0 H 0 Z" transform="translate(-227.13531,-497.81551)" id="path10"/>
    </clipPath>
    <clipPath clipPathUnits="userSpaceOnUse" id="clipPath12">
      <path d="M 0,841.89 H 595.276 V 0 H 0 Z" transform="translate(-227.86771,-563.04991)" id="path12"/>
    </clipPath>
    <clipPath clipPathUnits="userSpaceOnUse" id="clipPath14">
      <path d="M 0,841.89 H 595.276 V 0 H 0 Z" transform="translate(-227.62351,-493.33831)" id="path14"/>
    </clipPath>
  </defs>
  <g id="svg1" transform="matrix(1, 0, 0, 1, -11.924346, 79.194566)">
    <g id="layer-MC0" transform="matrix(1, 0, 0, 1, -127.660692, -336.715337)">
      <path id="path1" d="m 0,0 v 104.667 c 0,4.638 0.391,12.891 1.172,24.76 H 0.781 c -2.018,-6.344 -3.647,-10.881 -4.883,-13.608 L -54.395,0 h -5.175 l -50.489,115.001 c -1.562,3.545 -3.061,8.456 -4.492,14.733 h -0.39 c 0.454,-5.73 0.683,-13.608 0.683,-23.635 V 0 h -12.305 v 150.503 h 14.063 l 50,-115.102 c 1.953,-4.366 3.743,-9.244 5.371,-14.631 h 0.586 c 2.148,6.479 3.564,10.605 4.248,12.38 0.684,1.773 17.691,40.89 51.025,117.353 H 12.207 L 12.207,0 Z" style="fill-opacity: 1; fill-rule: nonzero; stroke: none; fill: rgb(255, 255, 255);" transform="matrix(1.3333333,0,0,-1.3333333,454.9304,557.2236)" clip-path="url(#clipPath2)"/>
      <path id="path3" d="m 0,0 c -19.987,0 -37.765,-4.475 -53.328,-13.422 -15.566,-8.95 -27.618,-21.602 -36.158,-37.961 -8.539,-16.361 -12.809,-34.749 -12.809,-55.17 0,-20.643 4.088,-39.032 12.264,-55.171 8.177,-16.14 19.774,-28.63 34.795,-37.467 15.018,-8.839 32.706,-13.257 53.056,-13.257 31.978,0 57.052,9.524 75.222,28.573 18.17,19.047 27.255,45.043 27.255,77.98 0,21.41 -3.938,40.127 -11.811,56.159 -7.874,16.029 -19.35,28.327 -34.431,36.89 C 38.974,-4.282 20.955,0 0,0 m -1.999,-231.552 c -24.228,0 -45.818,5.188 -64.775,15.563 -18.959,10.375 -33.644,24.95 -44.061,43.725 -10.419,18.774 -15.626,39.909 -15.626,63.405 0,25.581 5.207,48.061 15.626,67.44 10.417,19.376 25.438,34.309 45.061,44.795 19.623,10.483 42.454,15.728 68.499,15.728 23.863,0 45.09,-5.133 63.685,-15.398 18.593,-10.268 32.947,-24.649 43.062,-43.149 10.114,-18.502 15.172,-39.607 15.172,-63.323 0,-25.362 -5.149,-47.87 -15.444,-67.522 -10.297,-19.655 -24.984,-34.777 -44.062,-45.372 -19.078,-10.597 -41.457,-15.892 -67.137,-15.892" style="fill-opacity: 1; fill-rule: nonzero; stroke: none; fill: rgb(255, 255, 255);" transform="matrix(1.3333333,0,0,-1.3333333,379.90467,315.25587)" clip-path="url(#clipPath4)"/>
      <path id="path5" d="m 0,0 c -19.987,0 -37.765,-4.475 -53.328,-13.422 -15.566,-8.95 -27.618,-21.602 -36.158,-37.961 -8.539,-16.361 -12.809,-34.749 -12.809,-55.17 0,-20.643 4.088,-39.032 12.264,-55.171 8.177,-16.14 19.774,-28.63 34.795,-37.467 15.018,-8.839 32.706,-13.257 53.056,-13.257 31.978,0 57.052,9.524 75.222,28.573 18.17,19.047 27.255,45.043 27.255,77.98 0,21.41 -3.938,40.127 -11.811,56.159 -7.874,16.029 -19.35,28.327 -34.431,36.89 C 38.974,-4.282 20.955,0 0,0 Z m -1.999,-231.552 c -24.228,0 -45.818,5.188 -64.775,15.563 -18.959,10.375 -33.644,24.95 -44.061,43.725 -10.419,18.774 -15.626,39.909 -15.626,63.405 0,25.581 5.207,48.061 15.626,67.44 10.417,19.376 25.438,34.309 45.061,44.795 19.623,10.483 42.454,15.728 68.499,15.728 23.863,0 45.09,-5.133 63.685,-15.398 18.593,-10.268 32.947,-24.649 43.062,-43.149 10.114,-18.502 15.172,-39.607 15.172,-63.323 0,-25.362 -5.149,-47.87 -15.444,-67.522 -10.297,-19.655 -24.984,-34.777 -44.062,-45.372 -19.078,-10.597 -41.457,-15.892 -67.137,-15.892 z" style="stroke: rgb(29, 29, 27); stroke-width: 1; stroke-linecap: butt; stroke-linejoin: miter; stroke-miterlimit: 10; stroke-dasharray: none; stroke-opacity: 1; fill: rgb(255, 255, 255);" transform="matrix(1.3333333,0,0,-1.3333333,379.90467,315.25587)" clip-path="url(#clipPath6)"/>
      <path id="path7" d="m 0,0 h 114.063 v 64.746 h 12.402 V -78.906 H 114.063 V -11.23 L 0,-9.545" style="fill-opacity: 1; fill-rule: nonzero; stroke: none; fill: rgb(255, 255, 255);" transform="matrix(1.3333333,0,0,-1.3333333,302.58653,452.01533)" clip-path="url(#clipPath8)"/>
      <path id="path9" d="m 0,0 v -63.205 l 113.867,-0.681 0.196,-9.957 H -12.5 V 76.66 H -0.736 M 0,65.234 V 11.23" style="fill-opacity: 1; fill-rule: nonzero; stroke: none; fill: rgb(255, 255, 255);" transform="matrix(1.3333333,0,0,-1.3333333,302.84707,458.766)" clip-path="url(#clipPath10)"/>
      <path id="path11" d="m 0,0 v -58.008 h 24.023 c 9.961,0 18.001,2.75 24.122,8.252 6.119,5.501 9.179,12.94 9.179,22.315 0,8.593 -2.734,15.315 -8.203,20.166 C 43.652,-2.426 35.774,0 25.488,0 Z m -12.5,-68.878 v 80.304 h 41.016 c 7.942,0 15.103,-1.548 21.484,-4.639 6.38,-3.093 11.36,-7.504 14.941,-13.232 3.58,-5.73 5.372,-12.37 5.372,-19.922 0,-10.027 -2.898,-18.474 -8.692,-25.342 -5.795,-6.87 -13.52,-13.188 -23.936,-15.466 l -3.915,-0.852" style="fill-opacity: 1; fill-rule: nonzero; stroke: none; fill: rgb(255, 255, 255);" transform="matrix(1.3333333,0,0,-1.3333333,303.8236,371.7868)" clip-path="url(#clipPath12)"/>
      <path id="path13" d="m 0,0 v -58.008 h 24.023 c 9.961,0 18.001,2.75 24.122,8.252 6.119,5.501 9.179,12.94 9.179,22.315 0,8.593 -2.734,15.315 -8.203,20.166 C 43.652,-2.426 35.774,0 25.488,0 Z m -12.5,-68.878 v 80.304 h 41.016 c 7.942,0 15.103,-1.548 21.484,-4.639 6.38,-3.093 11.36,-7.504 14.941,-13.232 3.58,-5.73 5.372,-12.37 5.372,-19.922 0,-10.027 -2.898,-18.474 -8.692,-25.342 -5.795,-6.87 -13.52,-13.188 -23.936,-15.467 l -3.915,-0.851" style="fill-opacity: 1; fill-rule: nonzero; stroke: none; fill: rgb(255, 255, 255);" transform="matrix(1.3333333,0,0,-1.3333333,303.498,464.7356)" clip-path="url(#clipPath14)"/>
      <text id="text14" transform="matrix(1.3333333,0,0,1.3333333,174.89387,677.9588)" style="fill: rgb(255, 255, 255); font-family: BritannicBold; font-size: 40px; font-weight: 700; white-space: pre;" x="0" y="0">Mohamed M’Barki</text>
    </g>
  </g>
</svg>